<svg id="svg" version="1.1" xmlns="http://www.w3.org/2000/svg" xmlns:xlink="http://www.w3.org/1999/xlink" width="400" height="400" viewBox="0, 0, 400,400"><g id="svgg"><path id="path0" d="M143.100 143.634 C 112.135 174.636,86.800 200.137,86.800 200.302 C 86.800 200.571,135.534 249.303,182.237 295.736 L 199.875 313.271 256.337 256.958 C 287.392 225.985,312.800 200.454,312.800 200.222 C 312.800 199.663,200.316 87.190,199.799 87.233 C 199.580 87.251,174.065 112.632,143.100 143.634 M205.065 141.259 C 214.418 144.758,216.948 157.559,209.659 164.511 C 203.879 170.024,195.710 169.923,189.891 164.268 C 179.181 153.859,190.969 135.985,205.065 141.259 M158.501 186.799 C 165.730 189.031,169.902 196.798,167.755 204.027 C 164.931 213.537,153.520 217.411,145.776 211.489 C 133.185 201.859,143.357 182.121,158.501 186.799 M251.364 187.332 C 264.460 193.328,260.982 213.162,246.636 214.295 C 234.173 215.279,227.028 200.824,235.073 190.902 C 238.755 186.362,245.849 184.807,251.364 187.332 M205.602 232.897 C 212.886 236.124,216.120 245.361,212.405 252.330 C 205.484 265.314,185.788 260.453,185.856 245.778 C 185.903 235.709,196.438 228.837,205.602 232.897 " stroke="none" fill="#049cc4" fill-rule="evenodd"></path><path id="path1" d="M304.400 8.000 C 304.070 8.213,302.315 8.391,300.500 8.394 C 298.571 8.397,297.200 8.566,297.200 8.800 C 297.200 9.020,296.401 9.200,295.424 9.200 C 294.447 9.200,293.536 9.380,293.400 9.600 C 293.264 9.820,292.623 10.000,291.976 10.000 C 291.329 10.000,290.800 10.180,290.800 10.400 C 290.800 10.620,290.260 10.800,289.600 10.800 C 288.940 10.800,288.400 10.980,288.400 11.200 C 288.400 11.420,287.680 11.600,286.800 11.600 C 285.920 11.600,285.200 11.780,285.200 12.000 C 285.200 12.220,284.840 12.400,284.400 12.400 C 283.960 12.400,283.600 12.580,283.600 12.800 C 283.600 13.020,283.071 13.200,282.424 13.200 C 281.777 13.200,281.136 13.380,281.000 13.600 C 280.864 13.820,280.313 14.000,279.776 14.000 C 279.239 14.000,278.800 14.180,278.800 14.400 C 278.800 14.620,278.440 14.800,278.000 14.800 C 277.560 14.800,277.200 14.980,277.200 15.200 C 277.200 15.420,276.840 15.600,276.400 15.600 C 275.960 15.600,275.600 15.780,275.600 16.000 C 275.600 16.220,275.322 16.400,274.983 16.400 C 274.644 16.400,273.980 16.760,273.508 17.200 C 273.036 17.640,272.413 18.000,272.125 18.000 C 271.836 18.000,271.600 18.180,271.600 18.400 C 271.600 18.620,271.240 18.800,270.800 18.800 C 270.360 18.800,270.000 18.980,270.000 19.200 C 270.000 19.420,269.680 19.600,269.288 19.600 C 268.897 19.600,268.317 19.960,268.000 20.400 C 267.683 20.840,267.143 21.200,266.800 21.200 C 266.457 21.200,265.917 21.560,265.600 22.000 C 265.283 22.440,264.799 22.800,264.525 22.800 C 264.250 22.800,262.905 23.880,261.535 25.200 C 260.165 26.520,258.891 27.600,258.704 27.600 C 258.253 27.600,256.699 29.171,255.815 30.521 C 255.426 31.114,254.859 31.600,254.554 31.600 C 254.249 31.600,254.000 31.876,254.000 32.213 C 254.000 32.549,253.719 32.933,253.375 33.065 C 252.307 33.475,200.400 85.542,200.400 86.203 C 200.400 86.816,310.771 197.749,312.875 199.252 L 313.950 200.019 330.877 183.110 C 340.186 173.809,348.298 165.945,348.902 165.632 C 349.506 165.320,350.000 164.801,350.000 164.479 C 350.000 163.748,351.577 162.339,352.062 162.638 C 352.259 162.760,352.370 162.628,352.310 162.344 C 352.249 162.061,352.605 161.645,353.100 161.420 C 353.595 161.195,354.000 160.693,354.000 160.305 C 354.000 159.917,354.276 159.600,354.613 159.600 C 354.949 159.600,355.344 159.285,355.490 158.900 C 355.869 157.899,356.643 157.200,357.371 157.200 C 357.717 157.200,358.000 156.913,358.000 156.563 C 358.000 156.212,358.360 155.831,358.800 155.716 C 359.240 155.601,359.600 155.245,359.600 154.925 C 359.600 154.238,360.320 153.461,361.300 153.090 C 361.685 152.944,362.000 152.549,362.000 152.213 C 362.000 151.876,362.317 151.600,362.705 151.600 C 363.093 151.600,363.595 151.195,363.820 150.700 C 364.045 150.205,364.461 149.849,364.744 149.910 C 365.028 149.970,365.160 149.859,365.038 149.662 C 364.739 149.177,366.148 147.600,366.879 147.600 C 367.201 147.600,367.720 147.105,368.032 146.500 C 368.345 145.895,369.815 144.194,371.300 142.719 C 372.785 141.245,374.000 139.850,374.000 139.620 C 374.000 139.389,374.720 138.459,375.600 137.552 C 376.480 136.645,377.200 135.695,377.200 135.440 C 377.200 135.185,377.560 134.717,378.000 134.400 C 378.440 134.083,378.800 133.543,378.800 133.200 C 378.800 132.857,379.160 132.317,379.600 132.000 C 380.040 131.683,380.400 131.103,380.400 130.712 C 380.400 130.320,380.580 130.000,380.800 130.000 C 381.020 130.000,381.200 129.680,381.200 129.288 C 381.200 128.897,381.560 128.317,382.000 128.000 C 382.440 127.683,382.800 127.103,382.800 126.712 C 382.800 126.320,382.980 126.000,383.200 126.000 C 383.420 126.000,383.600 125.640,383.600 125.200 C 383.600 124.760,383.780 124.400,384.000 124.400 C 384.220 124.400,384.400 124.040,384.400 123.600 C 384.400 123.160,384.580 122.800,384.800 122.800 C 385.020 122.800,385.200 122.260,385.200 121.600 C 385.200 120.940,385.380 120.400,385.600 120.400 C 385.820 120.400,386.000 120.040,386.000 119.600 C 386.000 119.160,386.180 118.800,386.400 118.800 C 386.620 118.800,386.800 118.440,386.800 118.000 C 386.800 117.560,386.980 117.200,387.200 117.200 C 387.420 117.200,387.600 116.660,387.600 116.000 C 387.600 115.340,387.780 114.800,388.000 114.800 C 388.220 114.800,388.400 114.260,388.400 113.600 C 388.400 112.940,388.580 112.400,388.800 112.400 C 389.020 112.400,389.200 111.680,389.200 110.800 C 389.200 109.920,389.380 109.200,389.600 109.200 C 389.820 109.200,390.000 108.480,390.000 107.600 C 390.000 106.720,390.180 106.000,390.400 106.000 C 390.620 106.000,390.800 105.280,390.800 104.400 C 390.800 103.520,390.980 102.800,391.200 102.800 C 391.435 102.800,391.600 101.408,391.600 99.424 C 391.600 97.567,391.780 95.936,392.000 95.800 C 392.517 95.480,392.539 80.700,392.023 80.180 C 391.815 79.971,391.608 78.495,391.562 76.900 C 391.516 75.305,391.326 74.000,391.139 74.000 C 390.953 74.000,390.800 73.100,390.800 72.000 C 390.800 70.900,390.620 70.000,390.400 70.000 C 390.180 70.000,390.000 69.280,390.000 68.400 C 390.000 67.520,389.820 66.800,389.600 66.800 C 389.380 66.800,389.200 66.080,389.200 65.200 C 389.200 64.320,389.020 63.600,388.800 63.600 C 388.580 63.600,388.400 63.060,388.400 62.400 C 388.400 61.740,388.220 61.200,388.000 61.200 C 387.780 61.200,387.600 60.851,387.600 60.424 C 387.600 59.997,387.420 59.536,387.200 59.400 C 386.980 59.264,386.800 58.713,386.800 58.176 C 386.800 57.639,386.620 57.200,386.400 57.200 C 386.180 57.200,386.000 56.840,386.000 56.400 C 386.000 55.960,385.820 55.600,385.600 55.600 C 385.380 55.600,385.200 55.251,385.200 54.824 C 385.200 54.397,385.020 53.936,384.800 53.800 C 384.580 53.664,384.400 53.113,384.400 52.576 C 384.400 52.039,384.220 51.600,384.000 51.600 C 383.780 51.600,383.600 51.280,383.600 50.888 C 383.600 50.497,383.240 49.917,382.800 49.600 C 382.360 49.283,382.000 48.703,382.000 48.312 C 382.000 47.920,381.820 47.600,381.600 47.600 C 381.380 47.600,381.200 47.240,381.200 46.800 C 381.200 46.360,381.050 46.000,380.868 46.000 C 380.685 46.000,380.281 45.505,379.970 44.900 C 379.660 44.295,379.089 43.509,378.703 43.153 C 378.316 42.797,378.000 42.252,378.000 41.941 C 378.000 41.631,377.640 41.117,377.200 40.800 C 376.760 40.483,376.400 40.015,376.400 39.760 C 376.400 39.505,375.680 38.555,374.800 37.648 C 373.920 36.741,373.200 35.826,373.200 35.615 C 373.200 35.113,365.687 27.600,365.185 27.600 C 364.974 27.600,364.059 26.880,363.152 26.000 C 362.245 25.120,361.327 24.400,361.112 24.400 C 360.897 24.400,360.217 23.860,359.600 23.200 C 358.983 22.540,358.231 22.000,357.928 22.000 C 357.625 22.000,357.117 21.640,356.800 21.200 C 356.483 20.760,355.903 20.400,355.512 20.400 C 355.120 20.400,354.800 20.220,354.800 20.000 C 354.800 19.780,354.564 19.600,354.275 19.600 C 353.987 19.600,353.364 19.240,352.892 18.800 C 352.420 18.360,351.756 18.000,351.417 18.000 C 351.078 18.000,350.800 17.820,350.800 17.600 C 350.800 17.380,350.440 17.200,350.000 17.200 C 349.560 17.200,349.200 17.020,349.200 16.800 C 349.200 16.580,348.840 16.400,348.400 16.400 C 347.960 16.400,347.600 16.220,347.600 16.000 C 347.600 15.780,347.240 15.600,346.800 15.600 C 346.360 15.600,346.000 15.420,346.000 15.200 C 346.000 14.980,345.640 14.800,345.200 14.800 C 344.760 14.800,344.400 14.620,344.400 14.400 C 344.400 14.180,344.040 14.000,343.600 14.000 C 343.160 14.000,342.800 13.820,342.800 13.600 C 342.800 13.380,342.260 13.200,341.600 13.200 C 340.940 13.200,340.400 13.020,340.400 12.800 C 340.400 12.580,339.860 12.400,339.200 12.400 C 338.540 12.400,338.000 12.220,338.000 12.000 C 338.000 11.780,337.460 11.600,336.800 11.600 C 336.140 11.600,335.600 11.420,335.600 11.200 C 335.600 10.980,335.060 10.800,334.400 10.800 C 333.740 10.800,333.200 10.620,333.200 10.400 C 333.200 10.180,332.491 10.000,331.624 10.000 C 330.757 10.000,329.936 9.820,329.800 9.600 C 329.664 9.380,328.753 9.200,327.776 9.200 C 326.799 9.200,326.000 9.020,326.000 8.800 C 326.000 8.565,324.608 8.400,322.624 8.400 C 320.767 8.400,319.136 8.220,319.000 8.000 C 318.678 7.478,305.207 7.478,304.400 8.000 M84.882 200.586 C 84.455 201.129,83.977 201.444,83.820 201.286 C 83.662 201.129,83.570 201.180,83.614 201.400 C 83.806 202.353,83.547 202.800,82.800 202.800 C 82.360 202.800,82.000 203.035,82.000 203.323 C 82.000 203.611,81.284 204.376,80.409 205.023 C 79.535 205.670,78.815 206.390,78.809 206.622 C 78.796 207.205,76.191 210.000,75.660 210.000 C 75.423 210.000,75.035 210.360,74.800 210.800 C 74.565 211.240,74.123 211.600,73.819 211.600 C 73.516 211.600,73.036 212.123,72.753 212.761 C 72.470 213.400,71.735 214.220,71.119 214.584 C 70.504 214.948,70.000 215.505,70.000 215.823 C 70.000 216.140,69.640 216.400,69.200 216.400 C 68.683 216.400,68.400 216.667,68.400 217.153 C 68.400 217.570,68.043 218.000,67.600 218.116 C 67.160 218.231,66.800 218.569,66.800 218.868 C 66.800 219.166,66.395 219.595,65.900 219.820 C 65.405 220.045,65.049 220.461,65.110 220.744 C 65.170 221.028,65.059 221.160,64.862 221.038 C 64.354 220.725,62.800 222.164,62.800 222.947 C 62.800 223.333,62.473 223.600,62.000 223.600 C 61.467 223.600,61.200 223.867,61.200 224.400 C 61.200 224.840,60.940 225.200,60.623 225.200 C 60.305 225.200,59.726 225.740,59.336 226.400 C 58.657 227.551,58.274 227.790,57.400 227.614 C 57.180 227.570,57.126 227.659,57.280 227.813 C 57.433 227.967,56.938 228.678,56.180 229.393 C 55.421 230.109,54.800 230.898,54.800 231.147 C 54.800 231.396,54.517 231.600,54.171 231.600 C 53.444 231.600,52.400 232.537,52.400 233.190 C 52.400 233.747,50.580 235.600,50.032 235.600 C 49.810 235.600,49.435 235.960,49.200 236.400 C 48.965 236.840,48.508 237.200,48.186 237.200 C 47.864 237.200,47.600 237.430,47.600 237.710 C 47.600 238.361,42.583 243.600,41.960 243.600 C 41.374 243.600,39.601 245.628,39.600 246.300 C 39.600 246.575,39.317 246.800,38.971 246.800 C 38.244 246.800,37.200 247.737,37.200 248.390 C 37.200 248.959,35.614 250.556,34.699 250.907 C 34.315 251.054,34.000 251.451,34.000 251.787 C 34.000 252.133,33.652 252.400,33.200 252.400 C 32.760 252.400,32.400 252.659,32.400 252.975 C 32.400 253.292,30.780 255.183,28.800 257.178 C 26.820 259.173,25.200 261.002,25.200 261.242 C 25.200 261.483,24.660 262.183,24.000 262.800 C 23.340 263.417,22.800 264.137,22.800 264.400 C 22.800 264.663,22.260 265.383,21.600 266.000 C 20.940 266.617,20.400 267.409,20.400 267.760 C 20.400 268.112,20.220 268.400,20.000 268.400 C 19.780 268.400,19.600 268.636,19.600 268.925 C 19.600 269.213,19.240 269.836,18.800 270.308 C 18.360 270.780,18.000 271.444,18.000 271.783 C 18.000 272.122,17.820 272.400,17.600 272.400 C 17.380 272.400,17.200 272.760,17.200 273.200 C 17.200 273.640,17.020 274.000,16.800 274.000 C 16.580 274.000,16.400 274.360,16.400 274.800 C 16.400 275.240,16.220 275.600,16.000 275.600 C 15.780 275.600,15.600 275.960,15.600 276.400 C 15.600 276.840,15.420 277.200,15.200 277.200 C 14.980 277.200,14.800 277.560,14.800 278.000 C 14.800 278.440,14.620 278.800,14.400 278.800 C 14.180 278.800,14.000 279.160,14.000 279.600 C 14.000 280.040,13.820 280.400,13.600 280.400 C 13.380 280.400,13.200 280.940,13.200 281.600 C 13.200 282.260,13.020 282.800,12.800 282.800 C 12.580 282.800,12.400 283.160,12.400 283.600 C 12.400 284.040,12.220 284.400,12.000 284.400 C 11.780 284.400,11.600 284.940,11.600 285.600 C 11.600 286.260,11.420 286.800,11.200 286.800 C 10.980 286.800,10.800 287.520,10.800 288.400 C 10.800 289.280,10.620 290.000,10.400 290.000 C 10.180 290.000,10.000 290.529,10.000 291.176 C 10.000 291.823,9.820 292.464,9.600 292.600 C 9.380 292.736,9.200 293.647,9.200 294.624 C 9.200 295.601,9.020 296.400,8.800 296.400 C 8.579 296.400,8.400 297.440,8.400 298.720 C 8.400 300.022,8.181 301.276,7.900 301.579 C 7.494 302.016,7.512 302.058,8.000 301.800 C 8.488 301.542,8.506 301.584,8.100 302.021 C 7.468 302.702,7.373 321.413,8.000 321.800 C 8.220 321.936,8.400 323.297,8.400 324.824 C 8.400 326.408,8.572 327.600,8.800 327.600 C 9.020 327.600,9.200 328.320,9.200 329.200 C 9.200 330.080,9.380 330.800,9.600 330.800 C 9.820 330.800,10.000 331.520,10.000 332.400 C 10.000 333.280,10.180 334.000,10.400 334.000 C 10.620 334.000,10.800 334.540,10.800 335.200 C 10.800 335.860,10.980 336.400,11.200 336.400 C 11.420 336.400,11.600 336.929,11.600 337.576 C 11.600 338.223,11.780 338.864,12.000 339.000 C 12.220 339.136,12.400 339.687,12.400 340.224 C 12.400 340.761,12.580 341.200,12.800 341.200 C 13.020 341.200,13.200 341.560,13.200 342.000 C 13.200 342.440,13.380 342.800,13.600 342.800 C 13.820 342.800,14.000 343.340,14.000 344.000 C 14.000 344.660,14.180 345.200,14.400 345.200 C 14.620 345.200,14.800 345.560,14.800 346.000 C 14.800 346.440,14.980 346.800,15.200 346.800 C 15.420 346.800,15.600 347.160,15.600 347.600 C 15.600 348.040,15.780 348.400,16.000 348.400 C 16.220 348.400,16.400 348.760,16.400 349.200 C 16.400 349.640,16.580 350.000,16.800 350.000 C 17.020 350.000,17.200 350.360,17.200 350.800 C 17.200 351.240,17.380 351.600,17.600 351.600 C 17.820 351.600,18.000 351.920,18.000 352.312 C 18.000 352.703,18.360 353.283,18.800 353.600 C 19.240 353.917,19.600 354.457,19.600 354.800 C 19.600 355.143,19.960 355.683,20.400 356.000 C 20.840 356.317,21.200 356.857,21.200 357.200 C 21.200 357.543,21.560 358.083,22.000 358.400 C 22.440 358.717,22.800 359.185,22.800 359.440 C 22.800 359.695,23.520 360.645,24.400 361.552 C 25.280 362.459,26.000 363.382,26.000 363.604 C 26.000 364.131,35.869 374.000,36.396 374.000 C 36.618 374.000,37.541 374.720,38.448 375.600 C 39.355 376.480,40.345 377.200,40.648 377.200 C 40.952 377.200,41.200 377.380,41.200 377.600 C 41.200 377.820,41.436 378.000,41.725 378.000 C 42.013 378.000,42.598 378.315,43.025 378.700 C 43.451 379.085,44.295 379.655,44.900 379.968 C 45.505 380.280,46.000 380.685,46.000 380.868 C 46.000 381.050,46.320 381.200,46.712 381.200 C 47.103 381.200,47.683 381.560,48.000 382.000 C 48.317 382.440,48.897 382.800,49.288 382.800 C 49.680 382.800,50.000 382.980,50.000 383.200 C 50.000 383.420,50.360 383.600,50.800 383.600 C 51.240 383.600,51.600 383.780,51.600 384.000 C 51.600 384.220,51.960 384.400,52.400 384.400 C 52.840 384.400,53.200 384.580,53.200 384.800 C 53.200 385.020,53.740 385.200,54.400 385.200 C 55.060 385.200,55.600 385.380,55.600 385.600 C 55.600 385.820,55.960 386.000,56.400 386.000 C 56.840 386.000,57.200 386.180,57.200 386.400 C 57.200 386.620,57.639 386.800,58.176 386.800 C 58.713 386.800,59.264 386.980,59.400 387.200 C 59.536 387.420,59.997 387.600,60.424 387.600 C 60.851 387.600,61.200 387.780,61.200 388.000 C 61.200 388.220,61.740 388.400,62.400 388.400 C 63.060 388.400,63.600 388.580,63.600 388.800 C 63.600 389.020,64.140 389.200,64.800 389.200 C 65.460 389.200,66.000 389.380,66.000 389.600 C 66.000 389.820,66.709 390.000,67.576 390.000 C 68.443 390.000,69.264 390.180,69.400 390.400 C 69.536 390.620,70.447 390.800,71.424 390.800 C 72.401 390.800,73.200 390.980,73.200 391.200 C 73.200 391.422,74.259 391.600,75.576 391.600 C 76.883 391.600,78.064 391.780,78.200 392.000 C 78.354 392.249,82.063 392.400,88.000 392.400 C 93.937 392.400,97.646 392.249,97.800 392.000 C 97.936 391.780,99.117 391.600,100.424 391.600 C 101.741 391.600,102.800 391.422,102.800 391.200 C 102.800 390.980,103.599 390.800,104.576 390.800 C 105.553 390.800,106.464 390.620,106.600 390.400 C 106.736 390.180,107.377 390.000,108.024 390.000 C 108.671 390.000,109.200 389.820,109.200 389.600 C 109.200 389.380,109.920 389.200,110.800 389.200 C 111.680 389.200,112.400 389.020,112.400 388.800 C 112.400 388.580,112.940 388.400,113.600 388.400 C 114.260 388.400,114.800 388.220,114.800 388.000 C 114.800 387.780,115.149 387.600,115.576 387.600 C 116.003 387.600,116.464 387.420,116.600 387.200 C 116.736 386.980,117.287 386.800,117.824 386.800 C 118.361 386.800,118.800 386.620,118.800 386.400 C 118.800 386.180,119.160 386.000,119.600 386.000 C 120.040 386.000,120.400 385.820,120.400 385.600 C 120.400 385.380,120.940 385.200,121.600 385.200 C 122.260 385.200,122.800 385.020,122.800 384.800 C 122.800 384.580,123.160 384.400,123.600 384.400 C 124.040 384.400,124.400 384.220,124.400 384.000 C 124.400 383.780,124.760 383.600,125.200 383.600 C 125.640 383.600,126.000 383.420,126.000 383.200 C 126.000 382.980,126.278 382.800,126.617 382.800 C 126.956 382.800,127.620 382.440,128.092 382.000 C 128.564 381.560,129.187 381.200,129.475 381.200 C 129.764 381.200,130.000 381.020,130.000 380.800 C 130.000 380.580,130.320 380.400,130.712 380.400 C 131.103 380.400,131.683 380.040,132.000 379.600 C 132.317 379.160,132.857 378.800,133.200 378.800 C 133.543 378.800,134.083 378.440,134.400 378.000 C 134.717 377.560,135.201 377.200,135.475 377.200 C 135.750 377.200,137.095 376.120,138.465 374.800 C 139.835 373.480,141.109 372.400,141.296 372.400 C 141.747 372.400,143.301 370.829,144.185 369.479 C 144.574 368.886,145.040 368.400,145.221 368.400 C 146.242 368.400,199.605 314.357,199.236 313.697 C 199.023 313.313,173.548 287.710,142.624 256.801 C 111.701 225.891,86.400 200.376,86.400 200.101 C 86.400 199.302,85.722 199.519,84.882 200.586 " stroke="none" fill="#6cebc4" fill-rule="evenodd"></path><path id="path2" d="M81.400 8.000 C 81.264 8.220,79.644 8.400,77.800 8.400 C 75.956 8.400,74.336 8.580,74.200 8.800 C 74.064 9.020,73.063 9.200,71.976 9.200 C 70.889 9.200,70.000 9.380,70.000 9.600 C 70.000 9.820,69.280 10.000,68.400 10.000 C 67.520 10.000,66.800 10.180,66.800 10.400 C 66.800 10.620,66.260 10.800,65.600 10.800 C 64.940 10.800,64.400 10.980,64.400 11.200 C 64.400 11.420,63.860 11.600,63.200 11.600 C 62.540 11.600,62.000 11.780,62.000 12.000 C 62.000 12.220,61.460 12.400,60.800 12.400 C 60.140 12.400,59.600 12.580,59.600 12.800 C 59.600 13.020,59.060 13.200,58.400 13.200 C 57.740 13.200,57.200 13.380,57.200 13.600 C 57.200 13.820,56.840 14.000,56.400 14.000 C 55.960 14.000,55.600 14.180,55.600 14.400 C 55.600 14.620,55.240 14.800,54.800 14.800 C 54.360 14.800,54.000 14.980,54.000 15.200 C 54.000 15.420,53.640 15.600,53.200 15.600 C 52.760 15.600,52.400 15.780,52.400 16.000 C 52.400 16.220,52.040 16.400,51.600 16.400 C 51.160 16.400,50.800 16.580,50.800 16.800 C 50.800 17.020,50.440 17.200,50.000 17.200 C 49.560 17.200,49.200 17.380,49.200 17.600 C 49.200 17.820,48.880 18.000,48.488 18.000 C 48.097 18.000,47.517 18.360,47.200 18.800 C 46.883 19.240,46.303 19.600,45.912 19.600 C 45.520 19.600,45.200 19.780,45.200 20.000 C 45.200 20.220,44.880 20.400,44.488 20.400 C 44.097 20.400,43.517 20.760,43.200 21.200 C 42.883 21.640,42.375 22.000,42.072 22.000 C 41.769 22.000,41.017 22.540,40.400 23.200 C 39.783 23.860,39.067 24.400,38.808 24.400 C 38.549 24.400,37.646 25.120,36.800 26.000 C 35.954 26.880,35.064 27.600,34.821 27.600 C 34.252 27.600,30.800 31.042,30.800 31.609 C 30.800 31.845,29.540 33.281,28.000 34.800 C 26.460 36.319,25.200 37.768,25.200 38.020 C 25.200 38.273,24.660 38.983,24.000 39.600 C 23.340 40.217,22.800 40.937,22.800 41.200 C 22.800 41.463,22.260 42.183,21.600 42.800 C 20.940 43.417,20.400 44.209,20.400 44.560 C 20.400 44.912,20.220 45.200,20.000 45.200 C 19.780 45.200,19.600 45.520,19.600 45.912 C 19.600 46.303,19.240 46.883,18.800 47.200 C 18.360 47.517,18.000 48.097,18.000 48.488 C 18.000 48.880,17.820 49.200,17.600 49.200 C 17.380 49.200,17.200 49.560,17.200 50.000 C 17.200 50.440,17.020 50.800,16.800 50.800 C 16.580 50.800,16.400 51.160,16.400 51.600 C 16.400 52.040,16.220 52.400,16.000 52.400 C 15.780 52.400,15.600 52.760,15.600 53.200 C 15.600 53.640,15.420 54.000,15.200 54.000 C 14.980 54.000,14.800 54.234,14.800 54.520 C 14.800 55.256,13.859 57.193,13.500 57.197 C 13.335 57.199,13.200 57.740,13.200 58.400 C 13.200 59.060,13.020 59.600,12.800 59.600 C 12.580 59.600,12.400 60.140,12.400 60.800 C 12.400 61.460,12.220 62.000,12.000 62.000 C 11.780 62.000,11.600 62.540,11.600 63.200 C 11.600 63.860,11.420 64.400,11.200 64.400 C 10.980 64.400,10.800 64.940,10.800 65.600 C 10.800 66.260,10.620 66.800,10.400 66.800 C 10.180 66.800,10.000 67.520,10.000 68.400 C 10.000 69.280,9.820 70.000,9.600 70.000 C 9.380 70.000,9.200 71.001,9.200 72.224 C 9.200 73.447,9.046 74.352,8.858 74.236 C 8.670 74.120,8.480 75.414,8.436 77.112 C 8.391 78.811,8.185 80.371,7.978 80.580 C 7.461 81.099,7.483 95.880,8.000 96.200 C 8.220 96.336,8.400 97.697,8.400 99.224 C 8.400 100.808,8.572 102.000,8.800 102.000 C 9.020 102.000,9.200 102.900,9.200 104.000 C 9.200 105.100,9.380 106.000,9.600 106.000 C 9.820 106.000,10.000 106.720,10.000 107.600 C 10.000 108.480,10.180 109.200,10.400 109.200 C 10.620 109.200,10.800 109.920,10.800 110.800 C 10.800 111.680,10.980 112.400,11.200 112.400 C 11.420 112.400,11.600 112.940,11.600 113.600 C 11.600 114.260,11.780 114.800,12.000 114.800 C 12.220 114.800,12.400 115.340,12.400 116.000 C 12.400 116.660,12.580 117.200,12.800 117.200 C 13.020 117.200,13.200 117.560,13.200 118.000 C 13.200 118.440,13.380 118.800,13.600 118.800 C 13.820 118.800,14.000 119.340,14.000 120.000 C 14.000 120.660,14.180 121.200,14.400 121.200 C 14.620 121.200,14.800 121.560,14.800 122.000 C 14.800 122.440,14.980 122.800,15.200 122.800 C 15.420 122.800,15.600 123.160,15.600 123.600 C 15.600 124.040,15.780 124.400,16.000 124.400 C 16.220 124.400,16.400 124.760,16.400 125.200 C 16.400 125.640,16.535 126.001,16.700 126.003 C 17.037 126.007,18.000 127.925,18.000 128.591 C 18.000 128.829,18.360 129.283,18.800 129.600 C 19.240 129.917,19.600 130.457,19.600 130.800 C 19.600 131.143,19.960 131.683,20.400 132.000 C 20.840 132.317,21.200 132.857,21.200 133.200 C 21.200 133.543,21.560 134.083,22.000 134.400 C 22.440 134.717,22.800 135.211,22.800 135.497 C 22.800 135.783,23.745 136.998,24.900 138.195 C 26.055 139.393,28.080 141.625,29.400 143.154 C 30.720 144.683,32.031 145.949,32.313 145.967 C 32.594 145.985,32.939 146.298,33.079 146.661 C 33.449 147.625,85.575 199.675,86.021 199.526 C 86.569 199.342,199.600 86.264,199.600 85.899 C 199.600 85.435,148.211 34.166,147.455 33.876 C 147.095 33.738,146.785 33.394,146.767 33.113 C 146.749 32.831,145.483 31.520,143.954 30.200 C 142.425 28.880,140.193 26.855,138.995 25.700 C 137.798 24.545,136.583 23.600,136.297 23.600 C 136.011 23.600,135.517 23.240,135.200 22.800 C 134.883 22.360,134.343 22.000,134.000 22.000 C 133.657 22.000,133.117 21.640,132.800 21.200 C 132.483 20.760,131.943 20.400,131.600 20.400 C 131.257 20.400,130.717 20.040,130.400 19.600 C 130.083 19.160,129.503 18.800,129.112 18.800 C 128.720 18.800,128.400 18.620,128.400 18.400 C 128.400 18.180,128.080 18.000,127.688 18.000 C 127.297 18.000,126.717 17.640,126.400 17.200 C 126.083 16.760,125.629 16.400,125.391 16.400 C 124.725 16.400,122.807 15.437,122.803 15.100 C 122.801 14.935,122.260 14.800,121.600 14.800 C 120.940 14.800,120.400 14.620,120.400 14.400 C 120.400 14.180,120.040 14.000,119.600 14.000 C 119.160 14.000,118.800 13.820,118.800 13.600 C 118.800 13.380,118.260 13.200,117.600 13.200 C 116.940 13.200,116.400 13.020,116.400 12.800 C 116.400 12.580,115.860 12.400,115.200 12.400 C 114.540 12.400,114.000 12.220,114.000 12.000 C 114.000 11.780,113.460 11.600,112.800 11.600 C 112.140 11.600,111.600 11.420,111.600 11.200 C 111.600 10.980,111.060 10.800,110.400 10.800 C 109.740 10.800,109.200 10.620,109.200 10.400 C 109.200 10.180,108.480 10.000,107.600 10.000 C 106.720 10.000,106.000 9.820,106.000 9.600 C 106.000 9.380,105.100 9.200,104.000 9.200 C 102.900 9.200,102.000 9.020,102.000 8.800 C 102.000 8.567,100.675 8.400,98.824 8.400 C 97.077 8.400,95.536 8.220,95.400 8.000 C 95.068 7.463,81.732 7.463,81.400 8.000 M201.633 140.944 C 201.725 141.023,202.340 141.208,203.000 141.356 C 203.876 141.552,204.038 141.515,203.600 141.218 C 203.060 140.853,201.232 140.598,201.633 140.944 M206.433 142.500 C 206.525 142.555,207.140 143.050,207.800 143.600 L 209.000 144.600 208.030 143.500 C 207.497 142.895,206.882 142.400,206.664 142.400 C 206.445 142.400,206.342 142.445,206.433 142.500 M190.575 144.500 L 189.400 145.800 190.700 144.625 C 191.912 143.530,192.184 143.200,191.875 143.200 C 191.806 143.200,191.221 143.785,190.575 144.500 M213.058 152.000 C 213.375 153.725,213.602 154.051,213.594 152.767 C 213.591 152.235,213.411 151.530,213.194 151.200 C 212.918 150.778,212.877 151.015,213.058 152.000 M213.254 156.267 C 213.225 156.744,213.096 157.464,212.970 157.867 C 212.752 158.561,212.764 158.562,213.196 157.888 C 213.447 157.497,213.575 156.777,213.481 156.288 C 213.309 155.401,213.309 155.401,213.254 156.267 M211.600 161.077 C 211.600 161.303,210.843 162.368,209.919 163.444 C 208.994 164.520,208.742 164.950,209.358 164.400 C 210.815 163.100,212.153 161.220,211.844 160.910 C 211.710 160.776,211.600 160.851,211.600 161.077 M188.000 161.448 C 188.000 161.658,188.945 162.723,190.100 163.815 L 192.200 165.800 190.200 163.608 C 189.100 162.403,188.155 161.338,188.100 161.242 C 188.045 161.145,188.000 161.238,188.000 161.448 M153.107 186.690 C 153.826 186.779,154.906 186.777,155.507 186.686 C 156.108 186.595,155.520 186.522,154.200 186.524 C 152.880 186.526,152.388 186.601,153.107 186.690 M244.300 186.689 C 245.015 186.778,246.185 186.778,246.900 186.689 C 247.615 186.601,247.030 186.528,245.600 186.528 C 244.170 186.528,243.585 186.601,244.300 186.689 M236.000 190.600 C 235.028 191.590,234.323 192.400,234.433 192.400 C 234.543 192.400,235.428 191.590,236.400 190.600 C 237.372 189.610,238.077 188.800,237.967 188.800 C 237.857 188.800,236.972 189.610,236.000 190.600 M144.558 190.500 C 143.331 191.829,141.897 193.722,142.663 193.000 C 143.517 192.195,146.088 189.200,145.925 189.200 C 145.833 189.200,145.217 189.785,144.558 190.500 M258.658 197.600 C 258.975 199.325,259.202 199.651,259.194 198.367 C 259.191 197.835,259.011 197.130,258.794 196.800 C 258.518 196.378,258.477 196.615,258.658 197.600 M167.724 200.200 C 167.726 201.520,167.801 202.012,167.890 201.293 C 167.979 200.574,167.977 199.494,167.886 198.893 C 167.795 198.292,167.722 198.880,167.724 200.200 M273.852 240.300 C 251.875 262.245,226.358 287.717,217.147 296.904 C 207.936 306.090,200.400 313.787,200.400 314.007 C 200.400 314.535,252.482 366.592,253.339 366.921 C 253.702 367.061,254.015 367.406,254.033 367.687 C 254.051 367.969,255.316 369.280,256.845 370.600 C 258.374 371.920,260.424 373.765,261.402 374.700 C 262.379 375.635,263.414 376.400,263.701 376.400 C 263.988 376.400,264.483 376.760,264.800 377.200 C 265.117 377.640,265.657 378.000,266.000 378.000 C 266.343 378.000,266.883 378.360,267.200 378.800 C 267.517 379.240,268.057 379.600,268.400 379.600 C 268.743 379.600,269.283 379.960,269.600 380.400 C 269.917 380.840,270.457 381.200,270.800 381.200 C 271.143 381.200,271.683 381.560,272.000 382.000 C 272.317 382.440,272.771 382.800,273.009 382.800 C 273.675 382.800,275.593 383.763,275.597 384.100 C 275.599 384.265,276.140 384.400,276.800 384.400 C 277.460 384.400,278.000 384.580,278.000 384.800 C 278.000 385.020,278.360 385.200,278.800 385.200 C 279.240 385.200,279.600 385.380,279.600 385.600 C 279.600 385.820,279.960 386.000,280.400 386.000 C 280.840 386.000,281.200 386.180,281.200 386.400 C 281.200 386.620,281.740 386.800,282.400 386.800 C 283.060 386.800,283.600 386.980,283.600 387.200 C 283.600 387.420,283.960 387.600,284.400 387.600 C 284.840 387.600,285.200 387.780,285.200 388.000 C 285.200 388.220,285.920 388.400,286.800 388.400 C 287.680 388.400,288.400 388.580,288.400 388.800 C 288.400 389.020,288.940 389.200,289.600 389.200 C 290.260 389.200,290.800 389.380,290.800 389.600 C 290.800 389.820,291.700 390.000,292.800 390.000 C 293.900 390.000,294.800 390.180,294.800 390.400 C 294.800 390.620,295.509 390.800,296.376 390.800 C 297.243 390.800,298.064 390.980,298.200 391.200 C 298.336 391.420,300.067 391.600,302.047 391.600 C 304.208 391.600,305.554 391.751,305.413 391.978 C 305.270 392.210,307.666 392.357,311.600 392.357 C 315.534 392.357,317.930 392.210,317.787 391.978 C 317.646 391.751,318.992 391.600,321.153 391.600 C 323.133 391.600,324.864 391.420,325.000 391.200 C 325.136 390.980,326.137 390.800,327.224 390.800 C 328.311 390.800,329.200 390.620,329.200 390.400 C 329.200 390.180,329.920 390.000,330.800 390.000 C 331.680 390.000,332.400 389.820,332.400 389.600 C 332.400 389.380,333.120 389.200,334.000 389.200 C 334.880 389.200,335.600 389.020,335.600 388.800 C 335.600 388.580,336.140 388.400,336.800 388.400 C 337.460 388.400,338.000 388.220,338.000 388.000 C 338.000 387.780,338.360 387.600,338.800 387.600 C 339.240 387.600,339.600 387.420,339.600 387.200 C 339.600 386.980,340.140 386.800,340.800 386.800 C 341.460 386.800,342.000 386.620,342.000 386.400 C 342.000 386.180,342.360 386.000,342.800 386.000 C 343.240 386.000,343.600 385.820,343.600 385.600 C 343.600 385.380,344.140 385.200,344.800 385.200 C 345.460 385.200,346.001 385.065,346.003 384.900 C 346.007 384.541,347.944 383.600,348.680 383.600 C 348.966 383.600,349.200 383.420,349.200 383.200 C 349.200 382.980,349.520 382.800,349.912 382.800 C 350.303 382.800,350.883 382.440,351.200 382.000 C 351.517 381.560,352.097 381.200,352.488 381.200 C 352.880 381.200,353.200 381.020,353.200 380.800 C 353.200 380.580,353.520 380.400,353.912 380.400 C 354.303 380.400,354.883 380.040,355.200 379.600 C 355.517 379.160,356.057 378.800,356.400 378.800 C 356.743 378.800,357.283 378.440,357.600 378.000 C 357.917 377.560,358.425 377.200,358.728 377.200 C 359.031 377.200,359.783 376.660,360.400 376.000 C 361.017 375.340,361.720 374.800,361.964 374.800 C 362.538 374.800,373.200 364.145,373.200 363.572 C 373.200 363.333,373.920 362.446,374.800 361.600 C 375.680 360.754,376.400 359.818,376.400 359.520 C 376.400 359.221,376.760 358.717,377.200 358.400 C 377.640 358.083,378.000 357.543,378.000 357.200 C 378.000 356.857,378.360 356.317,378.800 356.000 C 379.240 355.683,379.600 355.143,379.600 354.800 C 379.600 354.457,379.960 353.917,380.400 353.600 C 380.840 353.283,381.200 352.703,381.200 352.312 C 381.200 351.920,381.380 351.600,381.600 351.600 C 381.820 351.600,382.000 351.240,382.000 350.800 C 382.000 350.360,382.180 350.000,382.400 350.000 C 382.620 350.000,382.800 349.640,382.800 349.200 C 382.800 348.760,382.980 348.400,383.200 348.400 C 383.420 348.400,383.600 348.040,383.600 347.600 C 383.600 347.160,383.780 346.800,384.000 346.800 C 384.220 346.800,384.400 346.440,384.400 346.000 C 384.400 345.560,384.580 345.200,384.800 345.200 C 385.020 345.200,385.200 344.840,385.200 344.400 C 385.200 343.960,385.380 343.600,385.600 343.600 C 385.820 343.600,386.000 343.240,386.000 342.800 C 386.000 342.360,386.180 342.000,386.400 342.000 C 386.620 342.000,386.800 341.460,386.800 340.800 C 386.800 340.140,386.980 339.600,387.200 339.600 C 387.420 339.600,387.600 339.060,387.600 338.400 C 387.600 337.740,387.780 337.200,388.000 337.200 C 388.220 337.200,388.400 336.660,388.400 336.000 C 388.400 335.340,388.580 334.800,388.800 334.800 C 389.020 334.800,389.200 334.080,389.200 333.200 C 389.200 332.320,389.380 331.600,389.600 331.600 C 389.820 331.600,390.000 330.880,390.000 330.000 C 390.000 329.120,390.180 328.400,390.400 328.400 C 390.622 328.400,390.800 327.341,390.800 326.024 C 390.800 324.717,390.980 323.536,391.200 323.400 C 391.429 323.258,391.600 321.196,391.600 318.576 C 391.600 315.792,391.757 314.000,392.000 314.000 C 392.222 314.000,392.400 312.933,392.400 311.600 C 392.400 310.267,392.222 309.200,392.000 309.200 C 391.757 309.200,391.600 307.408,391.600 304.624 C 391.600 302.004,391.429 299.942,391.200 299.800 C 390.980 299.664,390.800 298.483,390.800 297.176 C 390.800 295.859,390.622 294.800,390.400 294.800 C 390.180 294.800,390.000 294.080,390.000 293.200 C 390.000 292.320,389.820 291.600,389.600 291.600 C 389.380 291.600,389.200 290.880,389.200 290.000 C 389.200 289.120,389.020 288.400,388.800 288.400 C 388.580 288.400,388.400 287.860,388.400 287.200 C 388.400 286.540,388.220 286.000,388.000 286.000 C 387.780 286.000,387.600 285.460,387.600 284.800 C 387.600 284.140,387.420 283.600,387.200 283.600 C 386.980 283.600,386.800 283.060,386.800 282.400 C 386.800 281.740,386.620 281.200,386.400 281.200 C 386.180 281.200,386.000 280.840,386.000 280.400 C 386.000 279.960,385.820 279.600,385.600 279.600 C 385.380 279.600,385.200 279.240,385.200 278.800 C 385.200 278.360,385.020 278.000,384.800 278.000 C 384.580 278.000,384.400 277.640,384.400 277.200 C 384.400 276.760,384.220 276.400,384.000 276.400 C 383.780 276.400,383.600 276.040,383.600 275.600 C 383.600 275.160,383.420 274.800,383.200 274.800 C 382.980 274.800,382.800 274.440,382.800 274.000 C 382.800 273.560,382.620 273.200,382.400 273.200 C 382.180 273.200,382.000 272.840,382.000 272.400 C 382.000 271.960,381.820 271.600,381.600 271.600 C 381.380 271.600,381.200 271.280,381.200 270.888 C 381.200 270.497,380.840 269.917,380.400 269.600 C 379.960 269.283,379.600 268.743,379.600 268.400 C 379.600 268.057,379.240 267.517,378.800 267.200 C 378.360 266.883,378.000 266.343,378.000 266.000 C 378.000 265.657,377.640 265.117,377.200 264.800 C 376.760 264.483,376.400 263.989,376.400 263.703 C 376.400 263.417,375.455 262.202,374.300 261.005 C 373.145 259.807,371.120 257.575,369.800 256.046 C 368.480 254.517,367.169 253.251,366.887 253.233 C 366.606 253.215,366.262 252.905,366.124 252.545 C 365.837 251.798,314.568 200.400,314.109 200.400 C 313.944 200.400,295.828 218.355,273.852 240.300 M258.854 201.867 C 258.825 202.344,258.696 203.064,258.570 203.467 C 258.352 204.161,258.364 204.162,258.796 203.488 C 259.047 203.097,259.175 202.377,259.081 201.888 C 258.909 201.001,258.909 201.001,258.854 201.867 M163.375 210.100 L 162.200 211.400 163.500 210.225 C 164.712 209.130,164.984 208.800,164.675 208.800 C 164.606 208.800,164.021 209.385,163.375 210.100 M198.707 232.290 C 199.426 232.379,200.506 232.377,201.107 232.286 C 201.708 232.195,201.120 232.122,199.800 232.124 C 198.480 232.126,197.988 232.201,198.707 232.290 M190.400 236.200 C 189.428 237.190,188.723 238.000,188.833 238.000 C 188.943 238.000,189.828 237.190,190.800 236.200 C 191.772 235.210,192.477 234.400,192.367 234.400 C 192.257 234.400,191.372 235.210,190.400 236.200 M213.058 243.200 C 213.375 244.925,213.602 245.251,213.594 243.967 C 213.591 243.435,213.411 242.730,213.194 242.400 C 212.918 241.978,212.877 242.215,213.058 243.200 M199.100 259.482 C 199.595 259.578,200.405 259.578,200.900 259.482 C 201.395 259.387,200.990 259.309,200.000 259.309 C 199.010 259.309,198.605 259.387,199.100 259.482 " stroke="none" fill="#acacac" fill-rule="evenodd"></path><path id="path3" d="M195.600 141.701 C 192.379 142.774,189.270 145.676,187.723 149.055 C 181.460 162.737,200.010 174.717,209.943 163.404 C 218.992 153.097,208.599 137.370,195.600 141.701 M364.933 149.116 C 363.490 150.804,363.439 151.329,364.858 149.897 C 366.323 148.417,366.930 147.598,366.549 147.617 C 366.357 147.626,365.630 148.301,364.933 149.116 M360.060 153.842 C 359.331 154.666,359.800 155.057,360.581 154.276 C 360.921 153.936,361.200 153.554,361.200 153.429 C 361.200 153.009,360.606 153.224,360.060 153.842 M356.060 157.842 C 355.331 158.666,355.800 159.057,356.581 158.276 C 356.921 157.936,357.200 157.554,357.200 157.429 C 357.200 157.009,356.606 157.224,356.060 157.842 M351.440 162.640 C 350.586 163.400,349.969 164.103,350.069 164.203 C 350.169 164.302,350.930 163.743,351.760 162.960 C 353.724 161.108,353.459 160.843,351.440 162.640 M149.707 187.556 C 135.663 192.788,139.253 213.600,154.200 213.600 C 168.141 213.600,172.679 194.422,160.232 188.115 C 157.451 186.706,152.670 186.452,149.707 187.556 M242.000 187.151 C 231.180 190.705,228.713 205.098,237.882 211.171 C 250.221 219.344,264.740 205.174,256.763 192.743 C 253.888 188.263,246.795 185.576,242.000 187.151 M76.861 208.255 C 76.125 209.025,75.619 209.752,75.737 209.870 C 75.944 210.078,77.221 208.916,78.349 207.493 C 79.329 206.256,78.238 206.815,76.861 208.255 M71.300 213.798 C 70.557 214.642,70.694 214.873,71.600 214.307 C 72.040 214.032,72.400 213.671,72.400 213.504 C 72.400 213.027,71.849 213.175,71.300 213.798 M58.031 227.269 C 57.192 228.329,57.171 228.425,57.872 227.987 C 58.742 227.444,59.804 225.986,59.303 226.022 C 59.137 226.034,58.564 226.595,58.031 227.269 M195.452 233.072 C 191.902 234.302,188.187 238.339,186.998 242.257 C 182.623 256.677,202.749 265.760,211.161 253.163 C 218.145 242.705,207.380 228.938,195.452 233.072 M50.996 234.404 C 50.366 235.062,49.982 235.600,50.143 235.600 C 50.556 235.600,52.522 233.588,52.313 233.380 C 52.219 233.286,51.626 233.746,50.996 234.404 M44.610 240.665 C 43.172 242.131,42.075 243.408,42.170 243.503 C 42.318 243.652,45.974 240.077,47.268 238.519 C 48.491 237.044,46.900 238.329,44.610 240.665 M35.818 249.418 C 35.187 249.960,34.779 250.512,34.911 250.644 C 35.043 250.777,35.632 250.405,36.218 249.818 C 37.601 248.435,37.306 248.140,35.818 249.418 " stroke="none" fill="#f2e3c4" fill-rule="evenodd"></path><path id="path4" d="M143.059 142.741 C 105.225 180.574,86.365 199.701,86.459 200.143 C 86.571 200.670,199.492 314.000,199.905 314.000 C 199.967 314.000,225.493 288.579,256.631 257.509 C 287.769 226.440,313.412 200.916,313.615 200.791 C 313.818 200.665,292.342 178.920,265.892 152.468 C 239.441 126.015,213.840 100.257,209.000 95.227 C 204.160 90.197,200.110 86.063,200.000 86.041 C 199.890 86.019,174.267 111.534,143.059 142.741 M256.499 143.499 C 287.465 174.464,312.800 199.989,312.800 200.222 C 312.800 200.454,287.392 225.985,256.337 256.958 L 199.875 313.271 182.237 295.736 C 135.534 249.303,86.800 200.571,86.800 200.302 C 86.800 199.866,199.325 87.272,199.799 87.233 C 200.019 87.215,225.534 112.535,256.499 143.499 M196.000 140.774 C 181.842 145.096,182.711 164.519,197.229 168.239 C 203.741 169.907,213.786 163.613,213.569 158.000 C 213.556 157.670,213.356 157.850,213.124 158.400 C 211.783 161.581,210.844 163.045,209.241 164.456 C 207.573 165.925,206.914 166.304,203.839 167.563 C 202.324 168.183,197.684 168.189,196.180 167.571 C 192.892 166.223,192.098 165.750,190.298 164.066 C 183.285 157.506,186.031 144.951,195.214 141.595 C 197.662 140.700,202.093 140.527,203.881 141.256 C 204.497 141.507,205.552 141.950,206.227 142.240 C 207.784 142.910,211.288 146.594,212.097 148.412 C 213.250 151.003,213.351 151.398,213.633 154.400 L 213.914 157.400 213.857 154.191 C 213.693 144.997,204.585 138.153,196.000 140.774 M150.481 186.590 C 136.955 190.813,136.553 209.091,149.887 213.565 C 160.712 217.198,171.056 206.905,167.598 195.942 C 165.317 188.709,157.454 184.413,150.481 186.590 M244.500 186.287 C 245.105 186.378,246.095 186.378,246.700 186.287 C 247.305 186.195,246.810 186.120,245.600 186.120 C 244.390 186.120,243.895 186.195,244.500 186.287 M157.659 186.973 C 173.115 191.664,170.218 213.649,154.141 213.675 C 138.594 213.700,135.384 192.196,150.181 187.145 C 152.677 186.293,155.226 186.234,157.659 186.973 M239.272 187.627 C 230.823 191.849,228.969 203.319,235.645 210.064 C 237.425 211.862,240.218 213.609,241.284 213.591 C 241.568 213.587,240.842 213.088,239.671 212.483 C 228.324 206.621,229.870 190.957,242.200 186.862 C 243.115 186.558,243.202 186.456,242.564 186.432 C 242.104 186.414,240.623 186.952,239.272 187.627 M249.000 186.861 C 264.521 192.004,261.615 213.666,245.400 213.695 C 242.661 213.700,242.039 213.794,242.800 214.087 C 250.204 216.940,259.408 209.126,259.394 200.000 C 259.384 193.373,253.728 186.239,248.636 186.432 C 247.999 186.456,248.085 186.558,249.000 186.861 M196.114 232.154 C 186.136 235.427,182.491 247.583,189.265 254.995 C 197.955 264.503,213.274 259.287,213.916 246.600 C 214.396 237.107,204.787 229.310,196.114 232.154 M204.159 232.878 C 209.646 234.610,213.580 240.033,213.594 245.885 C 213.617 255.578,203.089 262.371,194.372 258.287 C 178.884 251.029,187.857 227.733,204.159 232.878 " stroke="none" fill="#59b4bc" fill-rule="evenodd"></path></g></svg>